<svg width="500" height="500" viewBox="0 0 500 500" fill="none" xmlns="http://www.w3.org/2000/svg">
<rect width="500" height="500" fill="#F5F5F5"/>
<rect width="500" height="500" fill="white"/>
<path d="M105.047 261V226.125H108.281V241.148C109.016 240.148 109.969 239.352 111.141 238.758C112.312 238.148 113.711 237.844 115.336 237.844C118.195 237.844 120.438 238.898 122.062 241.008C123.703 243.102 124.523 245.805 124.523 249.117V249.867C124.523 253.18 123.703 255.945 122.062 258.164C120.438 260.367 118.195 261.469 115.336 261.469C113.711 261.469 112.266 261.141 111 260.484C109.75 259.828 108.812 259.008 108.188 258.023H108.117L108.047 261H105.047ZM108.281 254.602C108.797 255.68 109.586 256.633 110.648 257.461C111.711 258.273 113.07 258.68 114.727 258.68C116.898 258.68 118.523 257.836 119.602 256.148C120.68 254.461 121.219 252.367 121.219 249.867V249.117C121.219 246.617 120.68 244.578 119.602 243C118.523 241.422 116.836 240.633 114.539 240.633C113.008 240.633 111.703 241.047 110.625 241.875C109.547 242.688 108.766 243.625 108.281 244.688V254.602ZM129.188 261V226.125H132.422V241.289C133.156 240.195 134.148 239.352 135.398 238.758C136.664 238.148 138.062 237.844 139.594 237.844C141.734 237.844 143.461 238.477 144.773 239.742C146.086 241.008 146.742 243.133 146.742 246.117V261H143.484V246.211C143.484 244.211 143.047 242.789 142.172 241.945C141.312 241.102 140.086 240.68 138.492 240.68C137.133 240.68 135.922 241.062 134.859 241.828C133.797 242.594 132.984 243.57 132.422 244.758V261H129.188ZM151.266 254.461C151.266 252.227 152.141 250.461 153.891 249.164C155.641 247.852 157.938 247.195 160.781 247.195H166.102V245.18C166.102 243.695 165.711 242.547 164.93 241.734C164.164 240.906 162.875 240.492 161.062 240.492C159.281 240.492 157.953 240.844 157.078 241.547C156.203 242.25 155.766 243.18 155.766 244.336V244.711H152.531V244.148C152.531 242.398 153.297 240.898 154.828 239.648C156.375 238.383 158.477 237.75 161.133 237.75C163.727 237.75 165.742 238.344 167.18 239.531C168.617 240.703 169.336 242.586 169.336 245.18V255.375C169.336 256.391 169.406 257.352 169.547 258.258C169.688 259.164 169.906 259.953 170.203 260.625V261H167.133C166.898 260.594 166.695 260.078 166.523 259.453C166.352 258.828 166.234 258.203 166.172 257.578C165.641 258.562 164.758 259.445 163.523 260.227C162.289 260.992 160.703 261.375 158.766 261.375C156.547 261.375 154.742 260.789 153.352 259.617C151.961 258.43 151.266 256.711 151.266 254.461ZM154.5 254.344C154.5 255.734 154.914 256.797 155.742 257.531C156.57 258.266 157.789 258.633 159.398 258.633C161.086 258.633 162.625 258.055 164.016 256.898C165.406 255.742 166.102 254.469 166.102 253.078V249.727H161.227C158.961 249.727 157.273 250.141 156.164 250.969C155.055 251.797 154.5 252.922 154.5 254.344ZM175.359 261V238.312H178.359L178.43 241.359H178.5C179.125 240.359 179.938 239.508 180.938 238.805C181.938 238.102 183.148 237.75 184.57 237.75C184.867 237.75 185.203 237.781 185.578 237.844C185.953 237.891 186.219 237.945 186.375 238.008V241.031C186.094 240.969 185.773 240.922 185.414 240.891C185.055 240.844 184.672 240.82 184.266 240.82C183.031 240.82 181.914 241.195 180.914 241.945C179.914 242.68 179.141 243.625 178.594 244.781V261H175.359ZM187.359 254.461C187.359 252.227 188.234 250.461 189.984 249.164C191.734 247.852 194.031 247.195 196.875 247.195H202.195V245.18C202.195 243.695 201.805 242.547 201.023 241.734C200.258 240.906 198.969 240.492 197.156 240.492C195.375 240.492 194.047 240.844 193.172 241.547C192.297 242.25 191.859 243.18 191.859 244.336V244.711H188.625V244.148C188.625 242.398 189.391 240.898 190.922 239.648C192.469 238.383 194.57 237.75 197.227 237.75C199.82 237.75 201.836 238.344 203.273 239.531C204.711 240.703 205.43 242.586 205.43 245.18V255.375C205.43 256.391 205.5 257.352 205.641 258.258C205.781 259.164 206 259.953 206.297 260.625V261H203.227C202.992 260.594 202.789 260.078 202.617 259.453C202.445 258.828 202.328 258.203 202.266 257.578C201.734 258.562 200.852 259.445 199.617 260.227C198.383 260.992 196.797 261.375 194.859 261.375C192.641 261.375 190.836 260.789 189.445 259.617C188.055 258.43 187.359 256.711 187.359 254.461ZM190.594 254.344C190.594 255.734 191.008 256.797 191.836 257.531C192.664 258.266 193.883 258.633 195.492 258.633C197.18 258.633 198.719 258.055 200.109 256.898C201.5 255.742 202.195 254.469 202.195 253.078V249.727H197.32C195.055 249.727 193.367 250.141 192.258 250.969C191.148 251.797 190.594 252.922 190.594 254.344ZM211.453 261V226.125H214.688V248.742L224.484 238.312H228.328L214.688 252.703V261H211.453ZM225.609 261L216.656 248.625L218.766 246.352L229.359 261H225.609ZM252.609 241.008V238.312H265.195V241.008H252.609ZM256.664 255.023V239.695V239.25V230.812H259.898V255.023C259.898 256.508 260.125 257.492 260.578 257.977C261.047 258.445 261.773 258.68 262.758 258.68C263.148 258.68 263.531 258.648 263.906 258.586C264.281 258.508 264.648 258.391 265.008 258.234V261.047C264.68 261.188 264.25 261.305 263.719 261.398C263.203 261.508 262.641 261.562 262.031 261.562C260.375 261.562 259.062 261.07 258.094 260.086C257.141 259.102 256.664 257.414 256.664 255.023ZM296.297 259.172C296.297 258.531 296.492 257.984 296.883 257.531C297.289 257.062 297.867 256.828 298.617 256.828C299.352 256.828 299.914 257.062 300.305 257.531C300.711 257.984 300.914 258.531 300.914 259.172C300.914 259.812 300.711 260.367 300.305 260.836C299.914 261.289 299.352 261.516 298.617 261.516C297.867 261.516 297.289 261.289 296.883 260.836C296.492 260.367 296.297 259.812 296.297 259.172ZM291.023 235.453V234.961C291.023 232.336 291.773 230.258 293.273 228.727C294.773 227.18 296.805 226.406 299.367 226.406C301.945 226.406 303.953 227.172 305.391 228.703C306.844 230.234 307.57 232.219 307.57 234.656C307.57 236.844 307.148 238.648 306.305 240.07C305.477 241.492 304.445 242.859 303.211 244.172C301.914 245.531 301.078 246.742 300.703 247.805C300.328 248.852 300.141 249.945 300.141 251.086V251.32H296.836V251.086C296.836 249.242 297.109 247.703 297.656 246.469C298.219 245.219 299.18 243.875 300.539 242.438C301.773 241.109 302.703 239.906 303.328 238.828C303.969 237.734 304.289 236.344 304.289 234.656C304.289 233.031 303.883 231.719 303.07 230.719C302.258 229.719 301.031 229.219 299.391 229.219C297.734 229.219 296.469 229.719 295.594 230.719C294.734 231.719 294.305 233.133 294.305 234.961V235.453H291.023Z" fill="black"/>
<path d="M231.211 250.688V237.188C231.211 233.734 232.055 231.062 233.742 229.172C235.43 227.266 237.781 226.312 240.797 226.312C243.797 226.312 246.148 227.266 247.852 229.172C249.555 231.062 250.406 233.734 250.406 237.188V250.688C250.406 254.141 249.555 256.82 247.852 258.727C246.148 260.633 243.797 261.578 240.797 261.562C237.781 261.547 235.43 260.594 233.742 258.703C232.055 256.812 231.211 254.141 231.211 250.688ZM234.562 250.922C234.562 253.359 235.078 255.266 236.109 256.641C237.156 258.016 238.719 258.703 240.797 258.703C242.891 258.703 244.453 258.016 245.484 256.641C246.531 255.266 247.055 253.359 247.055 250.922V236.953C247.055 234.516 246.531 232.609 245.484 231.234C244.453 229.859 242.891 229.172 240.797 229.172C238.719 229.172 237.156 229.859 236.109 231.234C235.078 232.609 234.562 234.516 234.562 236.953V250.922ZM268.055 250.688V237.188C268.055 233.734 268.898 231.062 270.586 229.172C272.273 227.266 274.625 226.312 277.641 226.312C280.641 226.312 282.992 227.266 284.695 229.172C286.398 231.062 287.25 233.734 287.25 237.188V250.688C287.25 254.141 286.398 256.82 284.695 258.727C282.992 260.633 280.641 261.578 277.641 261.562C274.625 261.547 272.273 260.594 270.586 258.703C268.898 256.812 268.055 254.141 268.055 250.688ZM271.406 250.922C271.406 253.359 271.922 255.266 272.953 256.641C274 258.016 275.562 258.703 277.641 258.703C279.734 258.703 281.297 258.016 282.328 256.641C283.375 255.266 283.898 253.359 283.898 250.922V236.953C283.898 234.516 283.375 232.609 282.328 231.234C281.297 229.859 279.734 229.172 277.641 229.172C275.562 229.172 274 229.859 272.953 231.234C271.922 232.609 271.406 234.516 271.406 236.953V250.922Z" fill="#FF4444"/>
<path d="M301.873 275.642C302.227 275.219 302.171 274.588 301.748 274.233L294.848 268.455C294.424 268.101 293.794 268.156 293.439 268.58C293.084 269.003 293.14 269.634 293.564 269.988L299.697 275.125L294.561 281.258C294.206 281.682 294.262 282.312 294.686 282.667C295.109 283.021 295.74 282.966 296.094 282.542L301.873 275.642ZM109.088 292.996L301.194 275.996L301.018 274.004L108.912 291.004L109.088 292.996Z" fill="#FF4444"/>
<circle cx="108.5" cy="291.5" r="3.5" fill="#FF4444"/>
<path d="M314.797 259.102C314.797 258.43 315 257.867 315.406 257.414C315.812 256.961 316.391 256.734 317.141 256.734C317.906 256.734 318.484 256.961 318.875 257.414C319.281 257.867 319.484 258.43 319.484 259.102C319.484 259.773 319.281 260.336 318.875 260.789C318.484 261.242 317.906 261.469 317.141 261.469C316.391 261.469 315.812 261.242 315.406 260.789C315 260.32 314.797 259.758 314.797 259.102ZM324.664 250.008V249.258C324.664 245.742 325.562 242.945 327.359 240.867C329.172 238.789 331.625 237.75 334.719 237.75C337.672 237.75 339.898 238.523 341.398 240.07C342.914 241.617 343.672 243.508 343.672 245.742V246H340.461V245.742C340.461 244.195 339.984 242.945 339.031 241.992C338.078 241.039 336.648 240.562 334.742 240.562C332.539 240.562 330.859 241.336 329.703 242.883C328.562 244.43 327.992 246.555 327.992 249.258V250.008C327.992 252.57 328.555 254.672 329.68 256.312C330.82 257.953 332.5 258.773 334.719 258.773C336.641 258.773 338.086 258.281 339.055 257.297C340.023 256.312 340.508 255.023 340.508 253.43V253.172H343.695V253.43C343.695 255.68 342.922 257.602 341.375 259.195C339.844 260.773 337.625 261.562 334.719 261.562C331.625 261.562 329.172 260.516 327.359 258.422C325.562 256.312 324.664 253.508 324.664 250.008ZM346.602 250.008V249.258C346.602 245.836 347.547 243.062 349.438 240.938C351.328 238.812 353.844 237.75 356.984 237.75C360.141 237.75 362.656 238.812 364.531 240.938C366.422 243.062 367.367 245.836 367.367 249.258V250.008C367.367 253.461 366.422 256.25 364.531 258.375C362.656 260.5 360.141 261.562 356.984 261.562C353.828 261.562 351.305 260.5 349.414 258.375C347.539 256.25 346.602 253.461 346.602 250.008ZM349.93 249.281V250.008C349.93 252.523 350.523 254.617 351.711 256.289C352.914 257.945 354.672 258.773 356.984 258.773C359.312 258.773 361.07 257.945 362.258 256.289C363.445 254.617 364.039 252.523 364.039 250.008V249.281C364.039 246.75 363.445 244.664 362.258 243.023C361.07 241.383 359.312 240.562 356.984 240.562C354.672 240.562 352.914 241.383 351.711 243.023C350.523 244.664 349.93 246.75 349.93 249.281ZM371.984 261V238.312H374.984L375.055 241.5H375.125C375.953 240.359 376.945 239.469 378.102 238.828C379.258 238.172 380.57 237.844 382.039 237.844C383.586 237.844 384.906 238.172 386 238.828C387.094 239.469 387.883 240.469 388.367 241.828H388.438C389.297 240.484 390.344 239.484 391.578 238.828C392.812 238.172 394.219 237.844 395.797 237.844C397.969 237.844 399.695 238.477 400.977 239.742C402.258 241.008 402.898 243.133 402.898 246.117V261H399.641V246.07C399.641 244.07 399.227 242.672 398.398 241.875C397.586 241.078 396.422 240.68 394.906 240.68C393.578 240.68 392.422 241.062 391.438 241.828C390.469 242.594 389.68 243.586 389.07 244.805V261H385.812V246.07C385.812 244.07 385.398 242.672 384.57 241.875C383.742 241.078 382.57 240.68 381.055 240.68C379.742 240.68 378.594 241.07 377.609 241.852C376.641 242.617 375.844 243.602 375.219 244.805V261H371.984Z" fill="black"/>
</svg>
